Coordinates
version=1
nRows=7
nColumns=42
inDegrees=yes

Units are S.I. units (second, meters, Newtons, ...)
If the header above contains a line with 'inDegrees', this indicates whether rotational values are in degrees (yes) or radians (no).

endheader
time	pelvis_tilt	pelvis_list	pelvis_rotation	pelvis_tx	pelvis_ty	pelvis_tz	hip_flexion_r	hip_adduction_r	hip_rotation_r	knee_angle_r	knee_adduction_r	knee_angle_r_beta	ankle_angle_r	subtalar_angle_r	mtp_angle_r	hip_flexion_l	hip_adduction_l	hip_rotation_l	knee_angle_l	knee_adduction_l	knee_angle_l_beta	ankle_angle_l	subtalar_angle_l	mtp_angle_l	lumbar_extension	lumbar_bending	lumbar_rotation	arm_flex_r	arm_add_r	arm_rot_r	elbow_flex_r	pro_sup_r	wrist_flex_r	wrist_dev_r	arm_flex_l	arm_add_l	arm_rot_l	elbow_flex_l	pro_sup_l	wrist_flex_l	wrist_dev_l
      0.00000000	     -2.21722891	     -1.85196499	      2.33527879	     -2.01444381	      0.90232709	     -0.18605829	     16.47527642	     -6.61212296	      3.06212242	     53.18810367	     16.57800795	      0.92830753	      0.00000000	      2.85815422	     -9.53103869	      0.69525965	     -6.51276210	     -4.92315893	      4.35127503	     18.78747287	      0.07594408	      8.09048166	      5.43736747	     -9.53103869	    -10.86594854	      1.44597706	     -1.72819862	     -5.85565828	    -14.40238570	     -4.97933125	     18.30465680	     90.00000001	      0.00000000	      0.00000000	     -2.13049753	    -13.38887417	      2.81754733	     23.12900289	     90.00000001	      0.00000000	      0.00000000
      0.01000000	     -1.42554385	     -1.87151465	      3.18617548	     -2.00396270	      0.90274985	     -0.18836455	     16.34283023	     -7.01852033	     -4.67334726	     45.93294523	     12.19715314	      0.80168113	     10.95710618	    -10.32102806	     -9.39721435	     -0.95830684	     -6.35146850	     -4.90295413	      4.15392825	     18.53937903	      0.07249972	      8.76409297	      6.56804996	     -9.39721435	    -11.58243355	      1.71695989	     -2.30487805	     -5.93387786	    -14.39010343	     -5.31327697	     18.23056081	     90.00000001	      0.00000000	      0.00000000	     -1.68171743	    -13.62372540	      3.24401669	     23.78814503	     90.00000001	      0.00000000	      0.00000000
      0.02000000	     -1.23466851	     -1.96792267	      3.72045733	     -1.99482152	      0.90250432	     -0.18985045	     16.82472073	     -6.93417082	     -5.28206058	     43.59402619	     12.15755741	      0.76085929	     10.86437313	    -11.34994589	     -9.30806981	     -1.81129876	     -6.32159832	     -4.73055724	      4.03342708	     18.35860743	      0.07039658	      9.27804548	      7.10817904	     -9.30806981	    -11.78829377	      1.97178132	     -2.58229806	     -5.90756891	    -14.33298824	     -5.61634295	     18.13378924	     90.00000001	      0.00000000	      0.00000000	     -1.14293083	    -13.84890288	      3.54483552	     24.38472859	     90.00000001	      0.00000000	      0.00000000
      0.03000000	     -1.32311602	     -1.92143392	      4.09012044	     -1.98584971	      0.90169589	     -0.19127890	     17.72059140	     -7.03290663	     -6.04634242	     41.46213603	     11.91579362	      0.72365079	     10.91234276	    -11.39339420	     -9.27342012	     -2.30297028	     -6.06992385	     -4.63000999	      4.06052952	     18.10159229	      0.07086961	      9.79008998	      7.36993956	     -9.27342012	    -11.70120423	      2.05508638	     -2.76457827	     -5.92720921	    -14.31555071	     -5.72331987	     18.07074841	     90.00000001	      0.00000000	      0.00000000	     -0.64573643	    -14.02768842	      3.72208860	     24.91277942	     90.00000001	      0.00000000	      0.00000000
      0.04000000	     -0.94871017	     -2.20013292	      4.55764117	     -1.97655545	      0.90144034	     -0.19227519	     17.83036900	     -6.63251863	     -6.87994621	     38.79844742	     11.67504572	      0.67716065	     10.40269699	    -11.93978047	     -9.17303908	     -3.36634584	     -6.44185005	     -4.41675094	      3.91318412	     18.22619386	      0.06829795	     10.35860592	      7.65045186	     -9.17303908	    -12.11560937	      2.50159353	     -2.94465773	     -5.86869705	    -14.23541023	     -6.20017242	     17.97199874	     90.00000001	      0.00000000	      0.00000000	     -0.12113149	    -14.25099336	      4.14900324	     25.46028600	     90.00000001	      0.00000000	      0.00000000
      0.05000000	     -1.20339778	     -1.92489379	      4.65753854	     -1.96768647	      0.90009477	     -0.19325230	     18.99255499	     -6.94040239	     -7.71005766	     36.84319164	     11.28375202	      0.64303500	     10.18263167	    -11.54711247	     -9.15289689	     -3.65773096	     -5.96681717	     -4.63971097	      4.12185981	     18.05152651	      0.07194003	     10.71697111	      7.65022413	     -9.15289689	    -11.89494974	      2.26945435	     -2.90792617	     -5.98227324	    -14.17994874	     -6.20462020	     18.04809571	     90.00000001	      0.00000000	      0.00000000	      0.35908926	    -14.43197538	      4.19735005	     25.93739243	     90.00000001	      0.00000000	      0.00000000
      0.06000000	     -1.41401077	     -1.82601161	      4.87248009	     -1.95889238	      0.89883766	     -0.19431683	     19.87425376	     -7.03110170	     -8.39336100	     34.38674394	     11.05054401	      0.60016190	      9.61718533	    -10.87996414	     -9.12931708	     -3.93860009	     -5.61349864	     -4.47614069	      4.27488537	     17.68221149	      0.07461082	     11.33662049	      7.73190758	     -9.12931708	    -11.73684192	      2.26962508	     -3.03864227	     -5.93728179	    -14.12870884	     -6.27601530	     18.03207184	     90.00000001	      0.00000000	      0.00000000	      0.75577817	    -14.61851084	      4.38684479	     26.41838111	     90.00000001	      0.00000000	      0.00000000
